<?xml version="1.0" encoding="utf-8"?>
<!-- Generator: Adobe Illustrator 16.0.4, SVG Export Plug-In . SVG Version: 6.00 Build 0)  -->
<!DOCTYPE svg PUBLIC "-//W3C//DTD SVG 1.1//EN" "http://www.w3.org/Graphics/SVG/1.1/DTD/svg11.dtd">
<svg version="1.1" xmlns="http://www.w3.org/2000/svg" xmlns:xlink="http://www.w3.org/1999/xlink" x="0px" y="0px" width="150px"
	 height="60px" viewBox="0 0 150 60" enable-background="new 0 0 150 60" xml:space="preserve">
<g id="desktop">
	<g id="desk">
		<path fill="#FFFFFF" d="M26,21c0.55,0,1-0.45,1-1V4c0-0.55-0.45-1-1-1H4C3.45,3,3,3.45,3,4v16c0,0.55,0.45,1,1,1h7
			c0.55,0,1,0.45,1,1v1c0,0.55-0.45,1-1,1h-1c-0.55,0-1,0.45-1,1v1c0,0.55,0.45,1,1,1h10c0.55,0,1-0.45,1-1v-1c0-0.55-0.45-1-1-1h-1
			c-0.55,0-1-0.45-1-1v-1c0-0.55,0.45-1,1-1H26z M7,18c-0.55,0-1-0.45-1-1V7c0-0.55,0.45-1,1-1h16c0.55,0,1,0.45,1,1v10
			c0,0.55-0.45,1-1,1H7z"/>
	</g>
	<g id="desk_x5F_hover" opacity="0.5">
		<path fill="#FFFFFF" d="M26,51c0.55,0,1-0.45,1-1V34c0-0.55-0.45-1-1-1H4c-0.55,0-1,0.45-1,1v16c0,0.55,0.45,1,1,1h7
			c0.55,0,1,0.45,1,1v1c0,0.55-0.45,1-1,1h-1c-0.55,0-1,0.45-1,1v1c0,0.55,0.45,1,1,1h10c0.55,0,1-0.45,1-1v-1c0-0.55-0.45-1-1-1h-1
			c-0.55,0-1-0.45-1-1v-1c0-0.55,0.45-1,1-1H26z M7,48c-0.55,0-1-0.45-1-1V37c0-0.55,0.45-1,1-1h16c0.55,0,1,0.45,1,1v10
			c0,0.55-0.45,1-1,1H7z"/>
	</g>
</g>
<g id="tablet">
	<g id="tablet_1_">
		<path fill="#FFFFFF" d="M37,3c-0.55,0-1,0.45-1,1v22c0,0.55,0.45,1,1,1h16c0.55,0,1-0.45,1-1V4c0-0.55-0.45-1-1-1H37z M45,25.5
			c-0.83,0-1.5-0.67-1.5-1.5s0.67-1.5,1.5-1.5s1.5,0.67,1.5,1.5S45.83,25.5,45,25.5z M51,20c0,0.55-0.45,1-1,1H40
			c-0.55,0-1-0.45-1-1V7c0-0.55,0.45-1,1-1h10c0.55,0,1,0.45,1,1V20z"/>
	</g>
	<g id="tablet_x5F_hover" opacity="0.5">
		<path fill="#FFFFFF" d="M37,33c-0.55,0-1,0.45-1,1v22c0,0.55,0.45,1,1,1h16c0.55,0,1-0.45,1-1V34c0-0.55-0.45-1-1-1H37z M45,55.5
			c-0.83,0-1.5-0.67-1.5-1.5s0.67-1.5,1.5-1.5s1.5,0.67,1.5,1.5S45.83,55.5,45,55.5z M51,50c0,0.55-0.45,1-1,1H40
			c-0.55,0-1-0.45-1-1V37c0-0.55,0.45-1,1-1h10c0.55,0,1,0.45,1,1V50z"/>
	</g>
</g>
<g id="tablet_x5F_landscape">
	<g id="tablet_2_">
		<path fill="#FFFFFF" d="M63,23c0,0.55,0.45,1,1,1h22c0.55,0,1-0.45,1-1V7c0-0.55-0.45-1-1-1H64c-0.55,0-1,0.45-1,1V23z M85.5,15
			c0,0.83-0.67,1.5-1.5,1.5s-1.5-0.67-1.5-1.5s0.67-1.5,1.5-1.5S85.5,14.17,85.5,15z M80,9c0.55,0,1,0.45,1,1v10c0,0.55-0.45,1-1,1
			H67c-0.55,0-1-0.45-1-1V10c0-0.55,0.45-1,1-1H80z"/>
	</g>
	<g id="tablet_x5F_hover_1_" opacity="0.5">
		<path fill="#FFFFFF" d="M63,53c0,0.55,0.45,1,1,1h22c0.55,0,1-0.45,1-1V37c0-0.55-0.45-1-1-1H64c-0.55,0-1,0.45-1,1V53z M85.5,45
			c0,0.83-0.67,1.5-1.5,1.5s-1.5-0.67-1.5-1.5s0.67-1.5,1.5-1.5S85.5,44.17,85.5,45z M80,39c0.55,0,1,0.45,1,1v10c0,0.55-0.45,1-1,1
			H67c-0.55,0-1-0.45-1-1V40c0-0.55,0.45-1,1-1H80z"/>
	</g>
</g>
<g id="phone">
	<g id="phone_1_">
		<path fill="#FFFFFF" d="M100,6c-0.55,0-1,0.45-1,1v16c0,0.55,0.45,1,1,1h10c0.55,0,1-0.45,1-1V7c0-0.55-0.45-1-1-1H100z M105,22.5
			c-0.83,0-1.5-0.67-1.5-1.5s0.67-1.5,1.5-1.5s1.5,0.67,1.5,1.5S105.83,22.5,105,22.5z M108,17c0,0.55-0.45,1-1,1h-4
			c-0.55,0-1-0.45-1-1v-7c0-0.55,0.45-1,1-1h4c0.55,0,1,0.45,1,1V17z"/>
	</g>
	<g id="phone_x5F_hover" opacity="0.5">
		<path fill="#FFFFFF" d="M100,36c-0.55,0-1,0.45-1,1v16c0,0.55,0.45,1,1,1h10c0.55,0,1-0.45,1-1V37c0-0.55-0.45-1-1-1H100z
			 M105,52.5c-0.83,0-1.5-0.67-1.5-1.5s0.67-1.5,1.5-1.5s1.5,0.67,1.5,1.5S105.83,52.5,105,52.5z M108,47c0,0.55-0.45,1-1,1h-4
			c-0.55,0-1-0.45-1-1v-7c0-0.55,0.45-1,1-1h4c0.55,0,1,0.45,1,1V47z"/>
	</g>
</g>
<g id="phone_x5F_landspace">
	<g id="phone_2_">
		<path fill="#FFFFFF" d="M126,20c0,0.55,0.45,1,1,1h16c0.55,0,1-0.45,1-1V10c0-0.55-0.45-1-1-1h-16c-0.55,0-1,0.45-1,1V20z
			 M142.5,15c0,0.83-0.67,1.5-1.5,1.5s-1.5-0.67-1.5-1.5s0.67-1.5,1.5-1.5S142.5,14.17,142.5,15z M137,12c0.55,0,1,0.45,1,1v4
			c0,0.55-0.45,1-1,1h-7c-0.55,0-1-0.45-1-1v-4c0-0.55,0.45-1,1-1H137z"/>
	</g>
	<g id="phone_x5F_hover_2_" opacity="0.5">
		<path fill="#FFFFFF" d="M126,50c0,0.55,0.45,1,1,1h16c0.55,0,1-0.45,1-1V40c0-0.55-0.45-1-1-1h-16c-0.55,0-1,0.45-1,1V50z
			 M142.5,45c0,0.83-0.67,1.5-1.5,1.5s-1.5-0.67-1.5-1.5s0.67-1.5,1.5-1.5S142.5,44.17,142.5,45z M137,42c0.55,0,1,0.45,1,1v4
			c0,0.55-0.45,1-1,1h-7c-0.55,0-1-0.45-1-1v-4c0-0.55,0.45-1,1-1H137z"/>
	</g>
</g>
</svg>
